<?xml version="1.0" encoding="UTF-8" standalone="no"?>
<!DOCTYPE svg PUBLIC "-//W3C//DTD SVG 1.1//EN" "http://www.w3.org/Graphics/SVG/1.1/DTD/svg11.dtd">
<svg width="32" height="32"  viewBox="0 0 17 17" version="1.1" xmlns="http://www.w3.org/2000/svg" xmlns:xlink="http://www.w3.org/1999/xlink" xml:space="preserve" xmlns:serif="http://www.serif.com/" style="fill-rule:evenodd;clip-rule:evenodd;stroke-linejoin:round;stroke-miterlimit:2;">
    <g transform="matrix(1,0,0,1,-4.26326e-14,3.4588e-05)">
        <g transform="matrix(1,0,0,1,-643,-695.146)">
            <g transform="matrix(0.16,0,0,0.171667,544.28,569.142)">
                <g transform="matrix(0.970874,0,0,0.970874,17.9709,21.3786)">
                    <rect x="617" y="734" width="103" height="96" style="fill:rgb(226,175,50);"/>
                </g>
                <g transform="matrix(2.0031,1.22583,-0.943057,1.33868,624.227,787.046)">
                    <text x="0px" y="0px" style="font-family:'ARADGothicJP-Medium', 'AR ADGothicJP Medium', monospace;font-size:50px;fill:white;fill-opacity:0.99;">C</text>
                </g>
            </g>
            <g transform="matrix(0.826664,0.562696,-0.70337,1.03333,642.558,701.331)">
                <rect x="6" y="1" width="1" height="2" style="fill:white;"/>
            </g>
            <g transform="matrix(0.826664,0.562696,-0.70337,1.03333,649.033,691.922)">
                <rect x="6" y="1" width="1" height="2" style="fill:white;"/>
            </g>
            <g transform="matrix(0.826615,0.562768,-0.70346,1.03327,651.51,693.513)">
                <rect x="6" y="1" width="1" height="2" style="fill:white;"/>
            </g>
            <g transform="matrix(0.826664,0.562696,-0.70337,1.03333,645.038,703.019)">
                <rect x="6" y="1" width="1" height="2" style="fill:white;"/>
            </g>
        </g>
    </g>
</svg>
