<?xml version="1.0" encoding="UTF-8" standalone="no"?>
<!DOCTYPE svg PUBLIC "-//W3C//DTD SVG 1.1//EN" "http://www.w3.org/Graphics/SVG/1.1/DTD/svg11.dtd">
<svg height="100%" style="fill-rule:evenodd;clip-rule:evenodd;stroke-linejoin:round;stroke-miterlimit:2;" version="1.1" viewBox="0 0 24 24" width="100%"
     xml:space="preserve"
     xmlns="http://www.w3.org/2000/svg">
    <path
      d="M6,18.7L6,21C6,21.549 5.549,22 5,22C4.451,22 4,21.549 4,21L4,16C4,15.451 4.451,15 5,15L10,15C10.549,15 11,15.451 11,16C11,16.549 10.549,17 10,17L7.1,17C8.408,18.282 10.168,19.001 12,19.001C15.84,19.001 19,15.841 19,12.001C19,12.001 19,12 19,12C19,11.451 19.451,11 20,11C20.549,11 21,11.451 21,12C20.996,16.934 16.934,20.992 12,20.992C9.787,20.992 7.65,20.175 6,18.7ZM18,5.3L18,3C18,2.451 18.451,2 19,2C19.549,2 20,2.451 20,3L20,8C20,8.549 19.549,9 19,9L14,9C13.451,9 13,8.549 13,8C13,7.451 13.451,7 14,7L16.9,7C15.592,5.718 13.832,4.999 12,4.999C8.16,4.999 5,8.159 5,11.999C5,11.999 5,12 5,12C5,12.549 4.549,13 4,13C3.451,13 3,12.549 3,12C3.004,7.066 7.066,3.008 12,3.008C14.213,3.008 16.35,3.825 18,5.3Z"
      style="fill:white;fill-rule:nonzero;"/>
</svg>
