<?xml version="1.0" encoding="UTF-8" standalone="no"?>
<!DOCTYPE svg PUBLIC "-//W3C//DTD SVG 1.1//EN" "http://www.w3.org/Graphics/SVG/1.1/DTD/svg11.dtd">
<svg height="100%" style="fill-rule:evenodd;clip-rule:evenodd;stroke-linejoin:round;stroke-miterlimit:2;" version="1.1" viewBox="0 0 17 17" width="100%"
     xml:space="preserve"
     xmlns="http://www.w3.org/2000/svg">
    <g transform="matrix(1,0,0,1,-25.3617,-53.7669)">
        <g transform="matrix(1.11183,0,0,1,-2.86397,0)">
            <g transform="matrix(0.00307253,-1.12609e-17,3.22533e-16,-0.00307878,24.8877,69.7561)">
                <path
                  d="M2260,5105C1757,5033 1321,4818 971,4469C615,4114 400,3686 324,3180C302,3040 300,2729 319,2590C372,2199 513,1842 736,1538C771,1490 800,1448 800,1445C800,1442 694,1440 565,1440C295,1440 269,1435 244,1375C228,1336 233,1296 259,1266C297,1222 315,1220 785,1220L1231,1220L1228,1696L1225,2172L1197,2196C1159,2229 1096,2229 1055,2196L1025,2172L1020,1855L1015,1539L989,1567C975,1582 938,1629 908,1670C756,1879 648,2110 584,2357C462,2835 514,3339 732,3774C962,4232 1367,4600 1835,4775C2513,5029 3231,4921 3811,4479C3975,4354 4180,4127 4297,3939C4619,3424 4689,2774 4485,2190C4409,1973 4264,1720 4118,1550C4039,1459 4030,1442 4030,1392C4030,1365 4037,1345 4054,1327C4086,1293 4116,1286 4165,1302C4245,1329 4459,1619 4580,1865C4789,2288 4860,2733 4794,3190C4710,3774 4399,4303 3931,4659C3631,4887 3322,5024 2952,5091C2802,5119 2409,5127 2260,5105Z"
                  style="fill-rule:nonzero;stroke:black;stroke-width:143.37px;"/>
            </g>
          <g transform="matrix(0.00349118,-1.27991e-17,3.67847e-16,-0.00312644,23.8707,70)">
                <path
                  d="M2450,4364C2303,4354 2112,4306 2005,4252C1849,4174 1724,4049 1650,3896C1529,3649 1511,3357 1591,2953L1611,2850L1580,2786C1553,2731 1548,2712 1548,2644C1548,2469 1613,2312 1715,2239C1728,2230 1744,2195 1758,2145C1787,2043 1877,1858 1925,1803L1961,1760L1958,1582L1955,1403L1926,1361C1868,1278 1736,1204 1425,1080C1029,922 840,805 702,633C581,482 524,324 505,88L498,0L4620,0L4620,28C4620,89 4598,240 4580,313C4524,528 4393,704 4185,842C4063,923 3977,965 3711,1074C3360,1218 3254,1279 3194,1369C3170,1406 3168,1417 3163,1577L3157,1746L3204,1810C3230,1845 3269,1910 3290,1955C3325,2029 3380,2186 3380,2213C3380,2220 3396,2236 3416,2250C3550,2340 3618,2650 3536,2796L3511,2841L3535,2945C3579,3130 3593,3238 3594,3405C3594,3526 3590,3587 3576,3655C3521,3918 3383,4087 3166,4156C3108,4174 3075,4192 3044,4220C2929,4326 2701,4381 2450,4364ZM2784,4120C2838,4103 2863,4088 2901,4050C2928,4023 2950,3997 2950,3992C2950,3987 2982,3978 3020,3971C3262,3927 3380,3745 3380,3413C3380,3273 3361,3139 3319,2975C3259,2745 3261,2775 3308,2734C3358,2692 3367,2654 3350,2567C3338,2505 3309,2437 3290,2425C3285,2422 3261,2416 3238,2412L3196,2405L3174,2295C3139,2119 3067,1964 2992,1902L2948,1865L2952,1610C2957,1323 2959,1313 3039,1213C3127,1101 3278,1014 3615,880C3815,800 3983,719 4070,660C4159,600 4263,493 4303,419C4339,355 4380,250 4380,223C4380,212 4077,210 2560,210C1043,210 740,212 740,223C740,231 749,263 760,295C825,485 968,629 1215,752C1265,777 1400,836 1517,883C1633,930 1766,988 1812,1011C1976,1093 2093,1196 2144,1304C2172,1362 2172,1365 2177,1614L2182,1865L2146,1890C2057,1952 1971,2140 1932,2360C1925,2403 1923,2405 1882,2412C1859,2416 1835,2422 1830,2425C1811,2437 1782,2505 1770,2567C1753,2654 1762,2692 1812,2734L1853,2770L1826,2887C1811,2952 1792,3041 1784,3085C1764,3196 1755,3447 1768,3545C1823,3952 2099,4157 2575,4146C2685,4143 2730,4138 2784,4120Z"
                  style="fill-rule:nonzero;stroke:black;stroke-width:140.56px;"/>
            </g>
        </g>
    </g>
</svg>
