<?xml version="1.0" encoding="UTF-8" standalone="no"?>
<!DOCTYPE svg PUBLIC "-//W3C//DTD SVG 1.1//EN" "http://www.w3.org/Graphics/SVG/1.1/DTD/svg11.dtd">
<svg height="100%" style="fill-rule:evenodd;clip-rule:evenodd;stroke-linejoin:round;stroke-miterlimit:2;" version="1.1" viewBox="0 0 16 16" width="100%"
     xml:space="preserve"
     xmlns="http://www.w3.org/2000/svg">
    <g transform="matrix(1,0,0,1,-46.7528,-22.9583)">
        <g id="path21" transform="matrix(0.0453917,0,0,0.0312058,46.7528,22.9583)">
            <path
              d="M20.113,509.783C0.871,501.801 -6.583,475.704 7.564,459.652C45.854,391.71 84.687,324.076 123.301,256.317C82.589,184.372 40.593,113.067 1.117,40.491C-5.042,20.037 15.32,-3.108 36.281,0.345C134.058,0.513 231.835,0.682 329.613,0.851C342.795,7.697 354.783,21.353 352.111,37.036C351.781,59.236 352.773,81.712 351.617,103.741C346.005,125.679 316.757,136.612 299.414,120.61C282.822,106.442 289.371,83.466 288.113,64.351L86.883,64.351C122.244,124.853 156.619,185.954 190.714,247.182C196.768,268.612 177.08,285.246 169.516,303.59C142.05,351.886 115.12,400.505 86.883,448.351L288.113,448.351C289.249,427.954 282.405,402.187 303.118,389.349C323.841,374.551 355.122,394.467 352.113,418.8C351.794,441.349 352.744,464.146 351.645,486.542C347.11,501.625 332.426,515.177 315.984,512.35C219.194,512.344 122.403,512.337 25.613,512.331C23.779,511.482 21.946,510.633 20.113,509.783L20.113,509.783Z"
              style="fill-rule:nonzero;"/>
        </g>
    </g>
</svg>
