<?xml version="1.0" encoding="UTF-8" standalone="no"?>
<!DOCTYPE svg PUBLIC "-//W3C//DTD SVG 1.1//EN" "http://www.w3.org/Graphics/SVG/1.1/DTD/svg11.dtd">
<svg height="100%" style="fill-rule:evenodd;clip-rule:evenodd;stroke-linejoin:round;stroke-miterlimit:2;" version="1.1" viewBox="0 0 17 17" width="100%"
     xml:space="preserve"
     xmlns="http://www.w3.org/2000/svg">
    <g transform="matrix(1,0,0,1,-72.7818,-21.5861)">
        <g id="path3723" transform="matrix(0.0288361,0.028849,-0.0201481,0.0201391,80.5955,19.0352)">
            <path
              d="M121.462,521.011L121.462,480.37C68.171,474.007 20.761,435.16 5.768,383.379C-2.774,354.687 2.132,324.061 0.512,294.504C0.34,262.665 0.171,230.825 0,198.985L68.033,198.985C68.7,143.429 67.562,87.809 69.929,32.304C75.24,1.686 118.109,-10.47 139.552,11.506C158.138,29.024 150.055,56.632 152.103,79.167C152.152,119.106 152.119,159.046 152.129,198.985L238.701,198.985C238.955,143.208 239.208,87.43 239.462,31.652C246.723,11.906 266.431,-4.149 288.423,0.958C307.721,3.369 325.096,22.819 322.183,42.643C322.413,94.757 322.642,146.871 322.872,198.985L392.129,198.985C391.495,254.532 393.883,310.252 389.797,365.652C381.371,423.679 331.681,471.732 273.795,479.754C267.001,482.536 272.637,495.458 270.795,502.279L270.795,561.652L121.462,561.652C121.462,548.105 121.462,534.557 121.462,521.011L121.462,521.011Z"
              style="fill-rule:nonzero;"/>
        </g>
    </g>
</svg>
