<?xml version="1.0" encoding="UTF-8" standalone="no"?>
<!DOCTYPE svg PUBLIC "-//W3C//DTD SVG 1.1//EN" "http://www.w3.org/Graphics/SVG/1.1/DTD/svg11.dtd">
<svg height="100%" style="fill-rule:evenodd;clip-rule:evenodd;stroke-linejoin:round;stroke-miterlimit:2;" version="1.1" viewBox="0 0 16 16" width="100%"
     xml:space="preserve"
     xmlns="http://www.w3.org/2000/svg">
    <g transform="matrix(1,0,0,1,-24,-22.9583)">
        <g transform="matrix(0.8,0,0,0.799768,22.4,21.3634)">
            <path
              d="M5,18L9.24,18C9.506,18.002 9.761,17.897 9.95,17.71L16.87,10.78L19.71,8C19.899,7.812 20.006,7.557 20.006,7.29C20.006,7.023 19.899,6.768 19.71,6.58L15.47,2.29C15.282,2.101 15.027,1.994 14.76,1.994C14.493,1.994 14.238,2.101 14.05,2.29L11.23,5.12L4.29,12.05C4.103,12.239 3.998,12.494 4,12.76L4,17C4,17.549 4.451,18 5,18ZM14.76,4.41L17.59,7.24L16.17,8.66L13.34,5.83L14.76,4.41ZM6,13.17L11.93,7.24L14.76,10.07L8.83,16L6,16L6,13.17ZM21,20L3,20C2.451,20 2,20.451 2,21C2,21.549 2.451,22 3,22L21,22C21.549,22 22,21.549 22,21C22,20.451 21.549,20 21,20Z"
              style="fill-rule:nonzero;"/>
        </g>
    </g>
</svg>
