<?xml version="1.0" encoding="UTF-8" standalone="no"?>
<!DOCTYPE svg PUBLIC "-//W3C//DTD SVG 1.1//EN" "http://www.w3.org/Graphics/SVG/1.1/DTD/svg11.dtd">
<svg width="100%" height="100%" viewBox="0 0 16 16" version="1.1" xmlns="http://www.w3.org/2000/svg" xmlns:xlink="http://www.w3.org/1999/xlink" xml:space="preserve" xmlns:serif="http://www.serif.com/" style="fill-rule:evenodd;clip-rule:evenodd;stroke-linejoin:round;stroke-miterlimit:2;">
    <g transform="matrix(1,0,0,1,-62.9152,-107.952)">
        <g transform="matrix(0.159695,0,0,0.171339,-35.6165,-17.8108)">
            <g transform="matrix(0.970874,0,0,0.970874,17.9709,21.3786)">
                <rect x="617" y="734" width="103" height="96" style="fill:rgb(0,174,0);"/>
            </g>
            <g transform="matrix(1.16321,0,0,1.32178,-97.6322,-235.652)">
                <text x="616.076px" y="771.791px" style="font-family:'SegoeUI-Bold', 'Segoe UI', sans-serif;font-weight:700;font-size:50px;fill:white;fill-opacity:0.99;">E<tspan x="643.127px 672.424px " y="771.791px 771.791px ">TF</tspan></text>
            </g>
            <g transform="matrix(0.930329,0.601864,-0.437997,0.657271,645.027,810.599)">
                <text x="0px" y="0px" style="font-family:'ARADGothicJP-Medium', 'AR ADGothicJP Medium', monospace;font-size:50px;fill:white;fill-opacity:0.99;">C</text>
            </g>
            <g transform="matrix(2.39962,1.60936,-2.04172,2.95542,640.388,802.244)">
                <rect x="6" y="1" width="1" height="2" style="fill:white;"/>
            </g>
            <g transform="matrix(2.39962,1.60936,-2.04172,2.95542,659.185,775.333)">
                <rect x="6" y="1" width="1" height="2" style="fill:white;"/>
            </g>
            <g transform="matrix(2.39948,1.60957,-2.04199,2.95525,666.373,779.882)">
                <rect x="6" y="1" width="1" height="2" style="fill:white;"/>
            </g>
            <g transform="matrix(2.39962,1.60936,-2.04172,2.95542,647.587,807.072)">
                <rect x="6" y="1" width="1" height="2" style="fill:white;"/>
            </g>
        </g>
    </g>
</svg>
