<?xml version="1.0" encoding="UTF-8" standalone="no"?>
<!DOCTYPE svg PUBLIC "-//W3C//DTD SVG 1.1//EN" "http://www.w3.org/Graphics/SVG/1.1/DTD/svg11.dtd">
<svg height="100%" style="fill-rule:evenodd;clip-rule:evenodd;stroke-linejoin:round;stroke-miterlimit:2;" version="1.1" viewBox="0 0 16 16" width="100%"
     xml:space="preserve"
     xmlns="http://www.w3.org/2000/svg">
    <g transform="matrix(1,0,0,1,-102,-21.5861)">
        <g transform="matrix(0.235936,0,0,0.249131,41.8068,-73.1522)">
            <g transform="matrix(0.695473,0,0,0.647073,85.8255,147.708)">
                <path
                  d="M281.832,374.825L281.832,418.522L325.528,418.522L311.859,404.852L340.94,375.772L324.582,359.414L295.5,388.495L281.832,374.825Z"
                  style="fill-rule:nonzero;"/>
            </g>
          <path
            d="M307.125,425.522L307.125,430.172C307.125,433.248 304.623,435.75 301.547,435.75L269.452,435.75C266.376,435.75 263.874,433.248 263.874,430.172L263.874,398.077C263.874,395.001 266.376,392.499 269.452,392.499L274.831,392.499L274.831,383.749L262.959,383.749C258.639,383.749 255.125,387.264 255.125,391.583L255.125,436.664C255.125,440.984 258.64,444.498 262.959,444.498L308.04,444.498C312.36,444.498 315.874,440.983 315.874,436.664L315.874,425.52L307.125,425.52L307.125,425.522Z"
            style="fill-rule:nonzero;"/>
        </g>
    </g>
</svg>
